<svg width="48" height="48" viewBox="0 0 48 48" fill="none" xmlns="http://www.w3.org/2000/svg">
<g clip-path="url(#clip0_1709_2568)">
<path fill-rule="evenodd" clip-rule="evenodd" d="M4.35636 4.35636C0.987305 7.73002 0.987305 13.1518 0.987305 24C0.987305 34.8482 0.987305 40.2723 4.35636 43.6413C7.73002 47.0127 13.1518 47.0127 24 47.0127C34.8482 47.0127 40.2723 47.0127 43.6413 43.6413C47.0127 40.2746 47.0127 34.8482 47.0127 24C47.0127 13.1518 47.0127 7.72772 43.6413 4.35636C40.2746 0.987305 34.8482 0.987305 24 0.987305C13.1518 0.987305 7.72772 0.987305 4.35636 4.35636Z" fill="white"/>
<path fill-rule="evenodd" clip-rule="evenodd" d="M6.928 6.928C4 9.86 4 14.572 4 24C4 33.428 4 38.142 6.928 41.07C9.86 44 14.572 44 24 44C33.428 44 38.142 44 41.07 41.07C44 38.144 44 33.428 44 24C44 14.572 44 9.858 41.07 6.928C38.144 4 33.428 4 24 4C14.572 4 9.858 4 6.928 6.928Z" fill="black"/>
<path d="M17.096 28.0654C17.5603 28.7402 18.1227 29.3964 18.7162 30.0088C20.9829 32.3473 24.7324 31.6107 26.2537 28.7311C26.6433 27.9937 27.0098 27.2406 27.3089 26.5222C28.8466 22.828 29.9294 17.4861 29.9294 17.4861" stroke="white" stroke-width="4" stroke-linecap="round"/>
</g>
<defs>
<clipPath id="clip0_1709_2568">
<rect width="48" height="48" fill="white"/>
</clipPath>
</defs>
</svg>
